<?xml version="1.0" standalone="yes"?>

<svg version="1.1" viewBox="0.0 0.0 504.0 685.0" fill="none" stroke="none" stroke-linecap="square" stroke-miterlimit="10" xmlns="http://www.w3.org/2000/svg" xmlns:xlink="http://www.w3.org/1999/xlink"><clipPath id="p.0"><path d="m0 0l504.0 0l0 685.0l-504.0 0l0 -685.0z" clip-rule="nonzero"></path></clipPath><g clip-path="url(#p.0)"><path fill="#ffffff" d="m0 0l504.0 0l0 685.0l-504.0 0z" fill-rule="nonzero"></path><path fill="#000000" d="m133.03578 593.6446l-96.05513 0l19.211025 -383.37796l57.63307 0z" fill-rule="nonzero"></path><path stroke="#000000" stroke-width="2.0" stroke-linejoin="round" stroke-linecap="butt" d="m133.03578 593.6446l-96.05513 0l19.211025 -383.37796l57.63307 0z" fill-rule="nonzero"></path><path fill="#000000" d="m152.90192 386.72858l0 205.1076l316.85565 0l-0.7060547 -124.47769l-132.25983 -79.92389l0.70602417 55.168l-93.35957 -55.168l0 55.876648z" fill-rule="nonzero"></path><path stroke="#000000" stroke-width="2.0" stroke-linejoin="round" stroke-linecap="butt" d="m152.90192 386.72858l0 205.1076l316.85565 0l-0.7060547 -124.47769l-132.25983 -79.92389l0.70602417 55.168l-93.35957 -55.168l0 55.876648z" fill-rule="nonzero"></path><path fill="#000000" fill-opacity="0.0" d="m21.702442 591.8362l267.02362 0l0 87.590576l-267.02362 0z" fill-rule="nonzero"></path><path fill="#32a0ff" d="m44.530567 650.7368q8.515625 0 8.515625 -5.828125q0 -1.796875 -0.765625 -3.046875q-0.75 -1.265625 -2.046875 -2.1875q-1.28125 -0.921875 -2.9375 -1.59375q-1.640625 -0.671875 -3.484375 -1.34375q-2.140625 -0.734375 -4.046875 -1.65625q-1.890625 -0.921875 -3.296875 -2.171875q-1.390625 -1.265625 -2.203125 -3.0q-0.8125 -1.75 -0.8125 -4.203125q0 -5.09375 3.46875 -7.953125q3.46875 -2.859375 9.578125 -2.859375q3.515625 0 6.40625 0.765625q2.890625 0.75 4.234375 1.640625l-1.734375 4.421875q-1.1875 -0.71875 -3.515625 -1.421875q-2.3125 -0.703125 -5.390625 -0.703125q-1.578125 0 -2.921875 0.34375q-1.34375 0.328125 -2.359375 1.0q-1.0 0.671875 -1.59375 1.71875q-0.578125 1.03125 -0.578125 2.421875q0 1.578125 0.609375 2.640625q0.625 1.0625 1.734375 1.875q1.125 0.8125 2.609375 1.484375q1.484375 0.671875 3.28125 1.34375q2.515625 1.0 4.609375 2.015625q2.109375 1.0 3.640625 2.40625q1.546875 1.390625 2.390625 3.328125q0.84375 1.9375 0.84375 4.671875q0 5.109375 -3.734375 7.859375q-3.71875 2.734375 -10.5 2.734375q-2.296875 0 -4.234375 -0.3125q-1.921875 -0.3125 -3.4375 -0.71875q-1.515625 -0.421875 -2.609375 -0.890625q-1.078125 -0.484375 -1.703125 -0.828125l1.625 -4.484375q1.296875 0.734375 3.921875 1.640625q2.640625 0.890625 6.4375 0.890625zm20.776363 3.859375l0 -38.8125l23.6875 0l0 4.65625l-18.25 0l0 11.53125l16.234375 0l0 4.53125l-16.234375 0l0 13.453125l19.65625 0l0 4.640625l-25.09375 0zm50.960373 -16.234375q0.90625 1.109375 2.265625 2.9375q1.375 1.8125 2.828125 4.03125q1.46875 2.203125 2.890625 4.625q1.421875 2.40625 2.4375 4.640625l-5.9375 0q-1.125 -2.125 -2.4375 -4.3125q-1.3125 -2.1875 -2.65625 -4.171875q-1.34375 -1.984375 -2.671875 -3.71875q-1.3125 -1.734375 -2.375 -3.03125q-0.71875 0.0625 -1.484375 0.0625q-0.75 0 -1.53125 0l-4.875 0l0 15.171875l-5.4375 0l0 -38.25q2.296875 -0.5625 5.125 -0.75q2.828125 -0.203125 5.1875 -0.203125q8.171875 0 12.453125 3.078125q4.28125 3.078125 4.28125 9.1875q0 3.859375 -2.046875 6.609375q-2.03125 2.75 -6.015625 4.09375zm-8.234375 -18.203125q-3.46875 0 -5.3125 0.171875l0 14.609375l3.859375 0q2.796875 0 5.03125 -0.28125q2.25 -0.28125 3.78125 -1.0625q1.546875 -0.78125 2.390625 -2.203125q0.84375 -1.4375 0.84375 -3.78125q0 -2.1875 -0.84375 -3.640625q-0.84375 -1.46875 -2.28125 -2.296875q-1.421875 -0.84375 -3.359375 -1.171875q-1.921875 -0.34375 -4.109375 -0.34375zm55.833374 -4.375q-2.125 6.171875 -4.0625 11.40625q-1.921875 5.234375 -3.78125 9.9375q-1.84375 4.703125 -3.671875 8.984375q-1.8125 4.28125 -3.71875 8.484375l-5.09375 0q-1.90625 -4.203125 -3.734375 -8.484375q-1.8125 -4.28125 -3.6875 -8.984375q-1.875 -4.703125 -3.84375 -9.9375q-1.953125 -5.234375 -4.015625 -11.40625l5.984375 0q3.03125 8.859375 5.9375 17.03125q2.921875 8.171875 6.0 15.34375q3.078125 -7.109375 5.984375 -15.3125q2.921875 -8.203125 5.890625 -17.0625l5.8125 0zm5.3766174 0l5.4375 0l0 38.8125l-5.4375 0l0 -38.8125zm31.751495 39.65625q-4.078125 0 -7.4375 -1.34375q-3.359375 -1.34375 -5.78125 -3.921875q-2.40625 -2.578125 -3.71875 -6.359375q-1.3125 -3.78125 -1.3125 -8.65625q0 -4.859375 1.484375 -8.640625q1.484375 -3.78125 4.0 -6.359375q2.515625 -2.578125 5.875 -3.921875q3.359375 -1.34375 7.171875 -1.34375q2.40625 0 4.34375 0.34375q1.9375 0.328125 3.359375 0.78125q1.421875 0.4375 2.3125 0.890625q0.90625 0.453125 1.25 0.671875l-1.578125 4.484375q-0.5 -0.34375 -1.453125 -0.734375q-0.953125 -0.390625 -2.15625 -0.78125q-1.203125 -0.390625 -2.640625 -0.640625q-1.421875 -0.25 -2.875 -0.25q-3.078125 0 -5.546875 1.0625q-2.453125 1.0625 -4.203125 3.078125q-1.734375 2.015625 -2.65625 4.90625q-0.921875 2.875 -0.921875 6.453125q0 3.484375 0.8125 6.34375q0.8125 2.84375 2.4375 4.890625q1.625 2.046875 4.0625 3.171875q2.4375 1.109375 5.6875 1.109375q3.75 0 6.203125 -0.78125q2.46875 -0.78125 3.703125 -1.40625l1.390625 4.484375q-0.390625 0.28125 -1.40625 0.703125q-1.0 0.421875 -2.515625 0.8125q-1.5 0.390625 -3.515625 0.671875q-2.015625 0.28125 -4.375 0.28125zm18.032501 -0.84375l0 -38.8125l23.6875 0l0 4.65625l-18.25 0l0 11.53125l16.234375 0l0 4.53125l-16.234375 0l0 13.453125l19.65625 0l0 4.640625l-25.09375 0z" fill-rule="nonzero"></path><path fill="#000000" fill-opacity="0.0" d="m258.79956 591.8362l223.74802 0l0 87.590576l-223.74802 0z" fill-rule="nonzero"></path><path fill="#000000" d="m272.28394 654.5962l0 -38.8125l25.984375 0l0 7.34375l-17.25 0l0 8.109375l15.34375 0l0 7.34375l-15.34375 0l0 16.015625l-8.734375 0zm58.128357 0q-0.625 -2.015625 -1.375 -4.140625q-0.75 -2.125 -1.484375 -4.265625l-15.125 0q-0.71875 2.140625 -1.484375 4.265625q-0.75 2.125 -1.375 4.140625l-9.0625 0q2.1875 -6.265625 4.140625 -11.578125q1.953125 -5.328125 3.828125 -10.03125q1.890625 -4.703125 3.703125 -8.9375q1.828125 -4.234375 3.78125 -8.265625l8.34375 0q1.90625 4.03125 3.75 8.265625q1.84375 4.234375 3.71875 8.9375q1.890625 4.703125 3.84375 10.03125q1.953125 5.3125 4.140625 11.578125l-9.34375 0zm-10.484375 -30.015625q-0.265625 0.84375 -0.828125 2.296875q-0.5625 1.453125 -1.296875 3.359375q-0.71875 1.90625 -1.59375 4.203125q-0.859375 2.296875 -1.765625 4.8125l11.03125 0q-0.890625 -2.515625 -1.734375 -4.8125q-0.84375 -2.296875 -1.59375 -4.203125q-0.75 -1.90625 -1.3125 -3.359375q-0.5625 -1.453125 -0.90625 -2.296875zm37.813507 30.515625q-3.203125 0 -6.375 -0.203125q-3.15625 -0.1875 -6.5625 -0.90625l0 -37.640625q2.6875 -0.5 5.875 -0.75q3.1875 -0.25 5.9375 -0.25q3.6875 0 6.796875 0.53125q3.109375 0.53125 5.34375 1.828125q2.25 1.28125 3.5 3.375q1.265625 2.09375 1.265625 5.171875q0 4.65625 -4.46875 7.34375q3.6875 1.40625 5.03125 3.8125q1.34375 2.40625 1.34375 5.421875q0 6.109375 -4.453125 9.1875q-4.453125 3.078125 -13.234375 3.078125zm-4.4375 -17.40625l0 10.015625q0.953125 0.109375 2.078125 0.171875q1.125 0.0625 2.46875 0.0625q3.921875 0 6.328125 -1.125q2.40625 -1.125 2.40625 -4.140625q0 -2.6875 -2.015625 -3.828125q-2.015625 -1.15625 -5.765625 -1.15625l-5.5 0zm0 -6.671875l4.265625 0q4.03125 0 5.765625 -1.03125q1.734375 -1.03125 1.734375 -3.328125q0 -2.359375 -1.796875 -3.3125q-1.78125 -0.953125 -5.25 -0.953125q-1.125 0 -2.421875 0.03125q-1.28125 0.03125 -2.296875 0.140625l0 8.453125zm40.491364 -15.671875q8.734375 0 13.375 3.109375q4.65625 3.09375 4.65625 9.65625q0 4.078125 -1.875 6.640625q-1.875 2.546875 -5.40625 4.0q1.1875 1.453125 2.46875 3.328125q1.296875 1.875 2.546875 3.921875q1.265625 2.046875 2.4375 4.265625q1.171875 2.203125 2.1875 4.328125l-9.796875 0q-1.0625 -1.90625 -2.15625 -3.859375q-1.09375 -1.96875 -2.25 -3.8125q-1.140625 -1.84375 -2.265625 -3.5q-1.125 -1.65625 -2.234375 -3.0l-4.3125 0l0 14.171875l-8.734375 0l0 -38.25q2.859375 -0.5625 5.90625 -0.78125q3.046875 -0.21875 5.453125 -0.21875zm0.515625 7.4375q-0.953125 0 -1.71875 0.0625q-0.75 0.046875 -1.421875 0.109375l0 10.53125l2.46875 0q4.921875 0 7.046875 -1.234375q2.125 -1.234375 2.125 -4.203125q0 -2.859375 -2.15625 -4.0625q-2.15625 -1.203125 -6.34375 -1.203125zm25.47699 -7.0l8.734375 0l0 38.8125l-8.734375 0l0 -38.8125zm40.602264 38.8125q-1.1875 -1.90625 -2.78125 -4.109375q-1.59375 -2.21875 -3.46875 -4.421875q-1.875 -2.21875 -3.890625 -4.265625q-2.015625 -2.046875 -4.03125 -3.609375l0 16.40625l-8.734375 0l0 -38.8125l8.734375 0l0 14.671875q3.40625 -3.578125 6.84375 -7.46875q3.453125 -3.890625 6.421875 -7.203125l10.359375 0q-3.96875 4.703125 -7.984375 9.078125q-4.0 4.359375 -8.421875 8.796875q4.65625 3.859375 8.984375 9.1875q4.34375 5.3125 8.328125 11.75l-10.359375 0z" fill-rule="nonzero"></path><path fill="#ffffff" d="m193.34227 109.39634l196.59349 0l0 0c25.754272 0 46.632233 19.9757 46.632233 44.616997c0 24.641281 -20.87796 44.61699 -46.632233 44.61699l-196.59349 0l0 0c-25.754288 0 -46.632248 -19.975708 -46.632248 -44.61699c0 -24.641296 20.87796 -44.616997 46.632248 -44.616997z" fill-rule="nonzero"></path><path stroke="#000000" stroke-width="24.0" stroke-linejoin="round" stroke-linecap="butt" d="m193.34227 109.39634l196.59349 0l0 0c25.754272 0 46.632233 19.9757 46.632233 44.616997c0 24.641281 -20.87796 44.61699 -46.632233 44.61699l-196.59349 0l0 0c-25.754288 0 -46.632248 -19.975708 -46.632248 -44.61699c0 -24.641296 20.87796 -44.616997 46.632248 -44.616997z" fill-rule="nonzero"></path><path fill="#ffffff" d="m145.28416 150.41197l0 0c0 -26.62896 20.174255 -48.215996 45.060455 -48.215996l0 0c11.950775 0 23.412079 5.0798874 31.862549 14.122139c8.45047 9.042252 13.1979065 21.306183 13.1979065 34.093857l0 0c0 26.628952 -20.174255 48.21599 -45.060455 48.21599l0 0c-24.8862 0 -45.060455 -21.587036 -45.060455 -48.21599z" fill-rule="nonzero"></path><path stroke="#000000" stroke-width="24.0" stroke-linejoin="round" stroke-linecap="butt" d="m145.28416 150.41197l0 0c0 -26.62896 20.174255 -48.215996 45.060455 -48.215996l0 0c11.950775 0 23.412079 5.0798874 31.862549 14.122139c8.45047 9.042252 13.1979065 21.306183 13.1979065 34.093857l0 0c0 26.628952 -20.174255 48.21599 -45.060455 48.21599l0 0c-24.8862 0 -45.060455 -21.587036 -45.060455 -48.21599z" fill-rule="nonzero"></path><path fill="#ffffff" d="m341.4546 144.6299l0 0c0 -29.826393 22.210938 -54.005463 49.609528 -54.005463l0 0c13.157257 0 25.775635 5.689842 35.079224 15.817833c9.303589 10.127983 14.530304 23.86448 14.530304 38.18763l0 0c0 29.826385 -22.210938 54.005447 -49.609528 54.005447l0 0c-27.39859 0 -49.609528 -24.179062 -49.609528 -54.005447z" fill-rule="nonzero"></path><path stroke="#000000" stroke-width="24.0" stroke-linejoin="round" stroke-linecap="butt" d="m341.4546 144.6299l0 0c0 -29.826393 22.210938 -54.005463 49.609528 -54.005463l0 0c13.157257 0 25.775635 5.689842 35.079224 15.817833c9.303589 10.127983 14.530304 23.86448 14.530304 38.18763l0 0c0 29.826385 -22.210938 54.005447 -49.609528 54.005447l0 0c-27.39859 0 -49.609528 -24.179062 -49.609528 -54.005447z" fill-rule="nonzero"></path><path fill="#ffffff" d="m188.0846 137.80995l0 0c0 -33.586807 24.220108 -60.8143 54.097137 -60.8143l0 0c14.347443 0 28.10727 6.4072037 38.25244 17.812096c10.145172 11.404892 15.844696 26.873253 15.844696 43.002205l0 0c0 33.586823 -24.220123 60.814316 -54.097137 60.814316l0 0c-29.87703 0 -54.097137 -27.227493 -54.097137 -60.814316z" fill-rule="nonzero"></path><path stroke="#000000" stroke-width="24.0" stroke-linejoin="round" stroke-linecap="butt" d="m188.0846 137.80995l0 0c0 -33.586807 24.220108 -60.8143 54.097137 -60.8143l0 0c14.347443 0 28.10727 6.4072037 38.25244 17.812096c10.145172 11.404892 15.844696 26.873253 15.844696 43.002205l0 0c0 33.586823 -24.220123 60.814316 -54.097137 60.814316l0 0c-29.87703 0 -54.097137 -27.227493 -54.097137 -60.814316z" fill-rule="nonzero"></path><path fill="#ffffff" d="m235.40337 117.38709l0 0c0 -44.399956 33.534317 -80.39323 74.900955 -80.39323l0 0c19.86499 0 38.91632 8.4699745 52.962982 23.54663c14.046661 15.076653 21.937988 35.524986 21.937988 56.846596l0 0c0 44.399956 -33.5343 80.39323 -74.90097 80.39323l0 0c-41.36664 0 -74.900955 -35.99327 -74.900955 -80.39323z" fill-rule="nonzero"></path><path stroke="#000000" stroke-width="24.0" stroke-linejoin="round" stroke-linecap="butt" d="m235.40337 117.38709l0 0c0 -44.399956 33.534317 -80.39323 74.900955 -80.39323l0 0c19.86499 0 38.91632 8.4699745 52.962982 23.54663c14.046661 15.076653 21.937988 35.524986 21.937988 56.846596l0 0c0 44.399956 -33.5343 80.39323 -74.90097 80.39323l0 0c-41.36664 0 -74.900955 -35.99327 -74.900955 -80.39323z" fill-rule="nonzero"></path><path fill="#ffffff" d="m193.34227 109.39634l196.59349 0l0 0c25.754272 0 46.632233 19.9757 46.632233 44.616997c0 24.641281 -20.87796 44.61699 -46.632233 44.61699l-196.59349 0l0 0c-25.754288 0 -46.632248 -19.975708 -46.632248 -44.61699c0 -24.641296 20.87796 -44.616997 46.632248 -44.616997z" fill-rule="nonzero"></path><path stroke="#ffffff" stroke-width="1.0" stroke-linejoin="round" stroke-linecap="butt" d="m193.34227 109.39634l196.59349 0l0 0c25.754272 0 46.632233 19.9757 46.632233 44.616997c0 24.641281 -20.87796 44.61699 -46.632233 44.61699l-196.59349 0l0 0c-25.754288 0 -46.632248 -19.975708 -46.632248 -44.61699c0 -24.641296 20.87796 -44.616997 46.632248 -44.616997z" fill-rule="nonzero"></path><path fill="#ffffff" d="m145.28416 150.41197l0 0c0 -26.62896 20.174255 -48.215996 45.060455 -48.215996l0 0c11.950775 0 23.412079 5.0798874 31.862549 14.122139c8.45047 9.042252 13.1979065 21.306183 13.1979065 34.093857l0 0c0 26.628952 -20.174255 48.21599 -45.060455 48.21599l0 0c-24.8862 0 -45.060455 -21.587036 -45.060455 -48.21599z" fill-rule="nonzero"></path><path stroke="#ffffff" stroke-width="1.0" stroke-linejoin="round" stroke-linecap="butt" d="m145.28416 150.41197l0 0c0 -26.62896 20.174255 -48.215996 45.060455 -48.215996l0 0c11.950775 0 23.412079 5.0798874 31.862549 14.122139c8.45047 9.042252 13.1979065 21.306183 13.1979065 34.093857l0 0c0 26.628952 -20.174255 48.21599 -45.060455 48.21599l0 0c-24.8862 0 -45.060455 -21.587036 -45.060455 -48.21599z" fill-rule="nonzero"></path><path fill="#ffffff" d="m341.4546 144.6299l0 0c0 -29.826393 22.210938 -54.005463 49.609528 -54.005463l0 0c13.157257 0 25.775635 5.689842 35.079224 15.817833c9.303589 10.127983 14.530304 23.86448 14.530304 38.18763l0 0c0 29.826385 -22.210938 54.005447 -49.609528 54.005447l0 0c-27.39859 0 -49.609528 -24.179062 -49.609528 -54.005447z" fill-rule="nonzero"></path><path stroke="#ffffff" stroke-width="1.0" stroke-linejoin="round" stroke-linecap="butt" d="m341.4546 144.6299l0 0c0 -29.826393 22.210938 -54.005463 49.609528 -54.005463l0 0c13.157257 0 25.775635 5.689842 35.079224 15.817833c9.303589 10.127983 14.530304 23.86448 14.530304 38.18763l0 0c0 29.826385 -22.210938 54.005447 -49.609528 54.005447l0 0c-27.39859 0 -49.609528 -24.179062 -49.609528 -54.005447z" fill-rule="nonzero"></path><path fill="#ffffff" d="m188.0846 137.80995l0 0c0 -33.586807 24.220108 -60.8143 54.097137 -60.8143l0 0c14.347443 0 28.10727 6.4072037 38.25244 17.812096c10.145172 11.404892 15.844696 26.873253 15.844696 43.002205l0 0c0 33.586823 -24.220123 60.814316 -54.097137 60.814316l0 0c-29.87703 0 -54.097137 -27.227493 -54.097137 -60.814316z" fill-rule="nonzero"></path><path stroke="#ffffff" stroke-width="1.0" stroke-linejoin="round" stroke-linecap="butt" d="m188.0846 137.80995l0 0c0 -33.586807 24.220108 -60.8143 54.097137 -60.8143l0 0c14.347443 0 28.10727 6.4072037 38.25244 17.812096c10.145172 11.404892 15.844696 26.873253 15.844696 43.002205l0 0c0 33.586823 -24.220123 60.814316 -54.097137 60.814316l0 0c-29.87703 0 -54.097137 -27.227493 -54.097137 -60.814316z" fill-rule="nonzero"></path><path fill="#ffffff" d="m235.40337 117.38709l0 0c0 -44.399956 33.534317 -80.39323 74.900955 -80.39323l0 0c19.86499 0 38.91632 8.4699745 52.962982 23.54663c14.046661 15.076653 21.937988 35.524986 21.937988 56.846596l0 0c0 44.399956 -33.5343 80.39323 -74.90097 80.39323l0 0c-41.36664 0 -74.900955 -35.99327 -74.900955 -80.39323z" fill-rule="nonzero"></path><path stroke="#ffffff" stroke-width="1.0" stroke-linejoin="round" stroke-linecap="butt" d="m235.40337 117.38709l0 0c0 -44.399956 33.534317 -80.39323 74.900955 -80.39323l0 0c19.86499 0 38.91632 8.4699745 52.962982 23.54663c14.046661 15.076653 21.937988 35.524986 21.937988 56.846596l0 0c0 44.399956 -33.5343 80.39323 -74.90097 80.39323l0 0c-41.36664 0 -74.900955 -35.99327 -74.900955 -80.39323z" fill-rule="nonzero"></path><path fill="#32a0ff" d="m264.9202 120.01031l0 0c0 -23.74759 19.29892 -42.99881 43.105316 -42.99881l0 0c11.432251 0 22.39627 4.53022 30.480072 12.594055c8.083832 8.063843 12.625275 19.000763 12.625275 30.404755l0 0c0 23.747581 -19.29892 42.998802 -43.105347 42.998802l0 0c-23.806396 0 -43.105316 -19.25122 -43.105316 -42.998802zm11.042084 0l0 0c0 17.649208 14.355194 31.956718 32.063232 31.956718c17.708038 0 32.063263 -14.30751 32.063263 -31.956718l0 0c0 -17.649208 -14.355225 -31.956718 -32.063263 -31.956718l0 0c-17.708038 0 -32.063232 14.30751 -32.063232 31.956718z" fill-rule="nonzero"></path><path stroke="#32a0ff" stroke-width="2.0" stroke-linejoin="round" stroke-linecap="butt" d="m264.9202 120.01031l0 0c0 -23.74759 19.29892 -42.99881 43.105316 -42.99881l0 0c11.432251 0 22.39627 4.53022 30.480072 12.594055c8.083832 8.063843 12.625275 19.000763 12.625275 30.404755l0 0c0 23.747581 -19.29892 42.998802 -43.105347 42.998802l0 0c-23.806396 0 -43.105316 -19.25122 -43.105316 -42.998802zm11.042084 0l0 0c0 17.649208 14.355194 31.956718 32.063232 31.956718c17.708038 0 32.063263 -14.30751 32.063263 -31.956718l0 0c0 -17.649208 -14.355225 -31.956718 -32.063263 -31.956718l0 0c-17.708038 0 -32.063232 14.30751 -32.063232 31.956718z" fill-rule="nonzero"></path><path fill="#32a0ff" d="m300.4978 77.84053l3.22583 -12.903343l8.6006775 0l3.2258606 12.903343z" fill-rule="nonzero"></path><path stroke="#32a0ff" stroke-width="2.0" stroke-linejoin="round" stroke-linecap="butt" d="m300.4978 77.84053l3.22583 -12.903343l8.6006775 0l3.2258606 12.903343z" fill-rule="nonzero"></path><path fill="#32a0ff" d="m300.4978 162.1299l3.22583 12.903351l8.6006775 0l3.2258606 -12.903351z" fill-rule="nonzero"></path><path stroke="#32a0ff" stroke-width="2.0" stroke-linejoin="round" stroke-linecap="butt" d="m300.4978 162.1299l3.22583 12.903351l8.6006775 0l3.2258606 -12.903351z" fill-rule="nonzero"></path><path fill="#32a0ff" d="m350.16867 112.45904l12.903351 3.2258377l0 8.600685l-12.903351 3.2258377z" fill-rule="nonzero"></path><path stroke="#32a0ff" stroke-width="2.0" stroke-linejoin="round" stroke-linecap="butt" d="m350.16867 112.45904l12.903351 3.2258377l0 8.600685l-12.903351 3.2258377z" fill-rule="nonzero"></path><path fill="#32a0ff" d="m265.8793 112.45904l-12.903351 3.2258377l0 8.600685l12.903351 3.2258377z" fill-rule="nonzero"></path><path stroke="#32a0ff" stroke-width="2.0" stroke-linejoin="round" stroke-linecap="butt" d="m265.8793 112.45904l-12.903351 3.2258377l0 8.600685l12.903351 3.2258377z" fill-rule="nonzero"></path><path fill="#32a0ff" d="m340.76065 92.529785l12.788208 -3.6564865l4.299469 7.4490585l-9.562988 9.244278z" fill-rule="nonzero"></path><path stroke="#32a0ff" stroke-width="2.0" stroke-linejoin="round" stroke-linecap="butt" d="m340.76065 92.529785l12.788208 -3.6564865l4.299469 7.4490585l-9.562988 9.244278z" fill-rule="nonzero"></path><path fill="#32a0ff" d="m267.75763 134.66605l-9.562988 9.244278l4.2994995 7.449051l12.7881775 -3.656479z" fill-rule="nonzero"></path><path stroke="#32a0ff" stroke-width="2.0" stroke-linejoin="round" stroke-linecap="butt" d="m267.75763 134.66605l-9.562988 9.244278l4.2994995 7.449051l12.7881775 -3.656479z" fill-rule="nonzero"></path><path fill="#32a0ff" d="m322.6017 79.730606l9.250732 -9.555901l7.4456177 4.3046494l-3.6655273 12.784958z" fill-rule="nonzero"></path><path stroke="#32a0ff" stroke-width="2.0" stroke-linejoin="round" stroke-linecap="butt" d="m322.6017 79.730606l9.250732 -9.555901l7.4456177 4.3046494l-3.6655273 12.784958z" fill-rule="nonzero"></path><path fill="#32a0ff" d="m280.4149 152.6999l-3.6655273 12.784973l7.4456177 4.3046417l9.250732 -9.555908z" fill-rule="nonzero"></path><path stroke="#32a0ff" stroke-width="2.0" stroke-linejoin="round" stroke-linecap="butt" d="m280.4149 152.6999l-3.6655273 12.784973l7.4456177 4.3046417l9.250732 -9.555908z" fill-rule="nonzero"></path><path fill="#32a0ff" d="m280.4452 87.24385l-3.6548767 -12.789154l7.4499207 -4.298622l9.243317 9.564606z" fill-rule="nonzero"></path><path stroke="#32a0ff" stroke-width="2.0" stroke-linejoin="round" stroke-linecap="butt" d="m280.4452 87.24385l-3.6548767 -12.789154l7.4499207 -4.298622l9.243317 9.564606z" fill-rule="nonzero"></path><path fill="#32a0ff" d="m322.57303 160.2553l9.243286 9.564606l7.4499207 -4.2986145l-3.6548767 -12.789154z" fill-rule="nonzero"></path><path stroke="#32a0ff" stroke-width="2.0" stroke-linejoin="round" stroke-linecap="butt" d="m322.57303 160.2553l9.243286 9.564606l7.4499207 -4.2986145l-3.6548767 -12.789154z" fill-rule="nonzero"></path><path fill="#32a0ff" d="m348.27838 134.56131l9.555908 9.250732l-4.304657 7.4456177l-12.784943 -3.665512z" fill-rule="nonzero"></path><path stroke="#32a0ff" stroke-width="2.0" stroke-linejoin="round" stroke-linecap="butt" d="m348.27838 134.56131l9.555908 9.250732l-4.304657 7.4456177l-12.784943 -3.665512z" fill-rule="nonzero"></path><path fill="#32a0ff" d="m275.30908 92.37449l-12.784973 -3.6655197l-4.3046265 7.4456177l9.555908 9.250732z" fill-rule="nonzero"></path><path stroke="#32a0ff" stroke-width="2.0" stroke-linejoin="round" stroke-linecap="butt" d="m275.30908 92.37449l-12.784973 -3.6655197l-4.3046265 7.4456177l9.555908 9.250732z" fill-rule="nonzero"></path><path fill="#999999" d="m177.4293 151.16066l0 0c0 -14.27243 11.29512 -25.842514 25.228348 -25.842514l0 0c6.690979 0 13.10791 2.7226868 17.839142 7.569107c4.7312317 4.846405 7.389206 11.419556 7.389206 18.273407l0 0c0 14.27243 -11.29512 25.84253 -25.228348 25.84253l0 0c-13.933228 0 -25.228348 -11.570099 -25.228348 -25.84253zm11.633804 0l0 0c0 7.8472595 6.086487 14.208725 13.594543 14.208725c7.508072 0 13.594543 -6.3614655 13.594543 -14.208725l0 0c0 -7.8472595 -6.0864716 -14.20871 -13.594543 -14.20871l0 0c-7.5080566 0 -13.594543 6.36145 -13.594543 14.20871z" fill-rule="nonzero"></path><path stroke="#999999" stroke-width="2.0" stroke-linejoin="round" stroke-linecap="butt" d="m177.4293 151.16066l0 0c0 -14.27243 11.29512 -25.842514 25.228348 -25.842514l0 0c6.690979 0 13.10791 2.7226868 17.839142 7.569107c4.7312317 4.846405 7.389206 11.419556 7.389206 18.273407l0 0c0 14.27243 -11.29512 25.84253 -25.228348 25.84253l0 0c-13.933228 0 -25.228348 -11.570099 -25.228348 -25.84253zm11.633804 0l0 0c0 7.8472595 6.086487 14.208725 13.594543 14.208725c7.508072 0 13.594543 -6.3614655 13.594543 -14.208725l0 0c0 -7.8472595 -6.0864716 -14.20871 -13.594543 -14.20871l0 0c-7.5080566 0 -13.594543 6.36145 -13.594543 14.20871z" fill-rule="nonzero"></path><path fill="#999999" d="m198.24844 125.81653l1.9392242 -7.7569275l4.9298096 0l1.9392395 7.7569275z" fill-rule="nonzero"></path><path stroke="#999999" stroke-width="2.0" stroke-linejoin="round" stroke-linecap="butt" d="m198.24844 125.81653l1.9392242 -7.7569275l4.9298096 0l1.9392395 7.7569275z" fill-rule="nonzero"></path><path fill="#999999" d="m198.24844 176.4876l1.9392242 7.7569275l4.9298096 0l1.9392395 -7.7569275z" fill-rule="nonzero"></path><path stroke="#999999" stroke-width="2.0" stroke-linejoin="round" stroke-linecap="butt" d="m198.24844 176.4876l1.9392242 7.7569275l4.9298096 0l1.9392395 -7.7569275z" fill-rule="nonzero"></path><path fill="#999999" d="m227.31459 146.62766l7.55072 1.88768l0 5.2734528l-7.55072 1.88768z" fill-rule="nonzero"></path><path stroke="#999999" stroke-width="2.0" stroke-linejoin="round" stroke-linecap="butt" d="m227.31459 146.62766l7.55072 1.88768l0 5.2734528l-7.55072 1.88768z" fill-rule="nonzero"></path><path fill="#999999" d="m177.99055 146.62766l-7.55072 1.88768l0 5.2734528l7.55072 1.88768z" fill-rule="nonzero"></path><path stroke="#999999" stroke-width="2.0" stroke-linejoin="round" stroke-linecap="butt" d="m177.99055 146.62766l-7.55072 1.88768l0 5.2734528l7.55072 1.88768z" fill-rule="nonzero"></path><path fill="#999999" d="m221.79802 134.6446l7.4727325 -2.2208405l2.5393372 4.520584l-5.610504 5.536072z" fill-rule="nonzero"></path><path stroke="#999999" stroke-width="2.0" stroke-linejoin="round" stroke-linecap="butt" d="m221.79802 134.6446l7.4727325 -2.2208405l2.5393372 4.520584l-5.610504 5.536072z" fill-rule="nonzero"></path><path fill="#999999" d="m179.0658 159.98013l-5.610489 5.536087l2.539322 4.520584l7.472748 -2.2208405z" fill-rule="nonzero"></path><path stroke="#999999" stroke-width="2.0" stroke-linejoin="round" stroke-linecap="butt" d="m179.0658 159.98013l-5.610489 5.536087l2.539322 4.520584l7.472748 -2.2208405z" fill-rule="nonzero"></path><path fill="#999999" d="m211.18988 126.96029l5.4340057 -5.733246l4.3130646 2.5617905l-2.1210938 7.700989z" fill-rule="nonzero"></path><path stroke="#999999" stroke-width="2.0" stroke-linejoin="round" stroke-linecap="butt" d="m211.18988 126.96029l5.4340057 -5.733246l4.3130646 2.5617905l-2.1210938 7.700989z" fill-rule="nonzero"></path><path fill="#999999" d="m186.51352 170.83891l-2.1210938 7.7009735l4.31308 2.561798l5.4340057 -5.733246z" fill-rule="nonzero"></path><path stroke="#999999" stroke-width="2.0" stroke-linejoin="round" stroke-linecap="butt" d="m186.51352 170.83891l-2.1210938 7.7009735l4.31308 2.561798l5.4340057 -5.733246z" fill-rule="nonzero"></path><path fill="#999999" d="m186.51697 131.45769l-2.116394 -7.699394l4.3175507 -2.5598373l5.429947 5.734825z" fill-rule="nonzero"></path><path stroke="#999999" stroke-width="2.0" stroke-linejoin="round" stroke-linecap="butt" d="m186.51697 131.45769l-2.116394 -7.699394l4.3175507 -2.5598373l5.429947 5.734825z" fill-rule="nonzero"></path><path fill="#999999" d="m211.16466 175.3363l5.4299316 5.734833l4.317566 -2.559845l-2.116394 -7.6993866z" fill-rule="nonzero"></path><path stroke="#999999" stroke-width="2.0" stroke-linejoin="round" stroke-linecap="butt" d="m211.16466 175.3363l5.4299316 5.734833l4.317566 -2.559845l-2.116394 -7.6993866z" fill-rule="nonzero"></path><path fill="#999999" d="m226.21318 159.92091l5.6054688 5.539673l-2.5431824 4.522171l-7.468979 -2.2260284z" fill-rule="nonzero"></path><path stroke="#999999" stroke-width="2.0" stroke-linejoin="round" stroke-linecap="butt" d="m226.21318 159.92091l5.6054688 5.539673l-2.5431824 4.522171l-7.468979 -2.2260284z" fill-rule="nonzero"></path><path fill="#999999" d="m183.50961 134.55672l-7.468979 -2.2260284l-2.5431824 4.522171l5.6054688 5.539688z" fill-rule="nonzero"></path><path stroke="#999999" stroke-width="2.0" stroke-linejoin="round" stroke-linecap="butt" d="m183.50961 134.55672l-7.468979 -2.2260284l-2.5431824 4.522171l5.6054688 5.539688z" fill-rule="nonzero"></path><path fill="#000000" d="m380.89734 144.50041l0 0c0 -9.732391 8.03775 -17.622055 17.952759 -17.622055l0 0c4.761383 0 9.327728 1.8565979 12.694519 5.161377c3.3667908 3.304779 5.2582397 7.787018 5.2582397 12.460678l0 0c0 9.732376 -8.03772 17.62204 -17.952759 17.62204l0 0c-9.915009 0 -17.952759 -7.8896637 -17.952759 -17.62204zm8.713409 0l0 0c0 4.920105 4.1365967 8.908646 9.239349 8.908646c5.1027527 0 9.23938 -3.9885406 9.23938 -8.908646c0 -4.9201202 -4.136627 -8.908661 -9.23938 -8.908661l0 0c-5.1027527 0 -9.239349 3.9885406 -9.239349 8.908661z" fill-rule="nonzero"></path><path stroke="#000000" stroke-width="2.0" stroke-linejoin="round" stroke-linecap="butt" d="m380.89734 144.50041l0 0c0 -9.732391 8.03775 -17.622055 17.952759 -17.622055l0 0c4.761383 0 9.327728 1.8565979 12.694519 5.161377c3.3667908 3.304779 5.2582397 7.787018 5.2582397 12.460678l0 0c0 9.732376 -8.03772 17.62204 -17.952759 17.62204l0 0c-9.915009 0 -17.952759 -7.8896637 -17.952759 -17.62204zm8.713409 0l0 0c0 4.920105 4.1365967 8.908646 9.239349 8.908646c5.1027527 0 9.23938 -3.9885406 9.23938 -8.908646c0 -4.9201202 -4.136627 -8.908661 -9.23938 -8.908661l0 0c-5.1027527 0 -9.239349 3.9885406 -9.239349 8.908661z" fill-rule="nonzero"></path><path fill="#000000" d="m395.7163 127.21803l1.3217163 -5.2868195l3.6262817 0l1.3216858 5.2868195z" fill-rule="nonzero"></path><path stroke="#000000" stroke-width="2.0" stroke-linejoin="round" stroke-linecap="butt" d="m395.7163 127.21803l1.3217163 -5.2868195l3.6262817 0l1.3216858 5.2868195z" fill-rule="nonzero"></path><path fill="#000000" d="m395.7163 161.75346l1.3217163 5.2868195l3.6262817 0l1.3216858 -5.2868195z" fill-rule="nonzero"></path><path stroke="#000000" stroke-width="2.0" stroke-linejoin="round" stroke-linecap="butt" d="m395.7163 161.75346l1.3217163 5.2868195l3.6262817 0l1.3216858 -5.2868195z" fill-rule="nonzero"></path><path fill="#000000" d="m416.4055 141.40208l5.374542 1.3436432l0 3.4800415l-5.374542 1.3436432z" fill-rule="nonzero"></path><path stroke="#000000" stroke-width="2.0" stroke-linejoin="round" stroke-linecap="butt" d="m416.4055 141.40208l5.374542 1.3436432l0 3.4800415l-5.374542 1.3436432z" fill-rule="nonzero"></path><path fill="#000000" d="m381.29684 141.40208l-5.3745728 1.3436432l0 3.4800415l5.3745728 1.3436432z" fill-rule="nonzero"></path><path stroke="#000000" stroke-width="2.0" stroke-linejoin="round" stroke-linecap="butt" d="m381.29684 141.40208l-5.3745728 1.3436432l0 3.4800415l5.3745728 1.3436432z" fill-rule="nonzero"></path><path fill="#000000" d="m412.47983 133.23802l5.3316956 -1.486908l1.7789612 3.034668l-3.978363 3.7955475z" fill-rule="nonzero"></path><path stroke="#000000" stroke-width="2.0" stroke-linejoin="round" stroke-linecap="butt" d="m412.47983 133.23802l5.3316956 -1.486908l1.7789612 3.034668l-3.978363 3.7955475z" fill-rule="nonzero"></path><path fill="#000000" d="m382.07144 150.4914l-3.978363 3.7955322l1.7789612 3.0346832l5.3316956 -1.486908z" fill-rule="nonzero"></path><path stroke="#000000" stroke-width="2.0" stroke-linejoin="round" stroke-linecap="butt" d="m382.07144 150.4914l-3.978363 3.7955322l1.7789612 3.0346832l5.3316956 -1.486908z" fill-rule="nonzero"></path><path fill="#000000" d="m404.91608 127.98855l3.842865 -3.9199219l3.1184082 1.7739487l-1.5360718 5.232193z" fill-rule="nonzero"></path><path stroke="#000000" stroke-width="2.0" stroke-linejoin="round" stroke-linecap="butt" d="m404.91608 127.98855l3.842865 -3.9199219l3.1184082 1.7739487l-1.5360718 5.232193z" fill-rule="nonzero"></path><path fill="#000000" d="m387.3474 157.88104l-1.5360718 5.232193l3.1184082 1.7739563l3.842865 -3.9199371z" fill-rule="nonzero"></path><path stroke="#000000" stroke-width="2.0" stroke-linejoin="round" stroke-linecap="butt" d="m387.3474 157.88104l-1.5360718 5.232193l3.1184082 1.7739563l3.842865 -3.9199371z" fill-rule="nonzero"></path><path fill="#000000" d="m387.35907 131.0782l-1.5306091 -5.2354813l3.1213684 -1.7710342l3.8395386 3.925415z" fill-rule="nonzero"></path><path stroke="#000000" stroke-width="2.0" stroke-linejoin="round" stroke-linecap="butt" d="m387.35907 131.0782l-1.5306091 -5.2354813l3.1213684 -1.7710342l3.8395386 3.925415z" fill-rule="nonzero"></path><path fill="#000000" d="m404.89905 160.99934l3.839569 3.925415l3.1213684 -1.7710266l-1.5306091 -5.235489z" fill-rule="nonzero"></path><path stroke="#000000" stroke-width="2.0" stroke-linejoin="round" stroke-linecap="butt" d="m404.89905 160.99934l3.839569 3.925415l3.1213684 -1.7710266l-1.5306091 -5.235489z" fill-rule="nonzero"></path><path fill="#000000" d="m415.6261 150.45624l3.9728699 3.7988129l-1.7818604 3.031784l-5.3283997 -1.4924011z" fill-rule="nonzero"></path><path stroke="#000000" stroke-width="2.0" stroke-linejoin="round" stroke-linecap="butt" d="m415.6261 150.45624l3.9728699 3.7988129l-1.7818604 3.031784l-5.3283997 -1.4924011z" fill-rule="nonzero"></path><path fill="#000000" d="m385.2464 133.1742l-5.32843 -1.4924011l-1.7818604 3.0317993l3.9728699 3.7987976z" fill-rule="nonzero"></path><path stroke="#000000" stroke-width="2.0" stroke-linejoin="round" stroke-linecap="butt" d="m385.2464 133.1742l-5.32843 -1.4924011l-1.7818604 3.0317993l3.9728699 3.7987976z" fill-rule="nonzero"></path></g></svg>

