<svg viewBox="0.0 0.0 504.0 685.0" fill="none" stroke-linecap="square" stroke-miterlimit="10" xmlns="http://www.w3.org/2000/svg"><clipPath id="a"><path d="M0 0h504v685H0V0z"/></clipPath><g clip-path="url(#a)"><path fill="#fff" d="M0 0h504v685H0z"/><path fill="#000" d="M133.036 593.645H36.98l19.21-383.378h57.634z"/><path stroke="#000" stroke-width="2" stroke-linejoin="round" stroke-linecap="butt" d="M133.036 593.645H36.98l19.21-383.378h57.634z"/><path fill="#000" d="M152.902 386.729v205.107h316.856l-.706-124.478-132.26-79.923.706 55.168-93.36-55.168v55.876z"/><path stroke="#000" stroke-width="2" stroke-linejoin="round" stroke-linecap="butt" d="M152.902 386.729v205.107h316.856l-.706-124.478-132.26-79.923.706 55.168-93.36-55.168v55.876z"/><path fill="none" d="M21.702 591.836h267.024v87.59H21.702z"/><path fill="#32a0ff" d="M44.53 650.737q8.516 0 8.516-5.828 0-1.797-.765-3.047-.75-1.266-2.047-2.188-1.282-.922-2.938-1.593-1.64-.672-3.484-1.344-2.14-.735-4.047-1.656-1.89-.922-3.297-2.172-1.39-1.266-2.203-3-.813-1.75-.813-4.203 0-5.094 3.47-7.954 3.468-2.859 9.577-2.859 3.516 0 6.407.766 2.89.75 4.234 1.64l-1.734 4.422q-1.188-.719-3.516-1.422-2.313-.703-5.39-.703-1.579 0-2.923.344-1.343.328-2.359 1-1 .672-1.594 1.719-.578 1.03-.578 2.422 0 1.578.61 2.64.625 1.063 1.734 1.875 1.125.813 2.61 1.485 1.484.671 3.28 1.343 2.516 1 4.61 2.016 2.11 1 3.64 2.406 1.547 1.39 2.391 3.328.844 1.938.844 4.672 0 5.11-3.734 7.86-3.72 2.734-10.5 2.734-2.297 0-4.235-.313-1.922-.312-3.437-.718-1.516-.422-2.61-.89-1.078-.485-1.703-.83l1.625-4.483q1.297.734 3.922 1.64 2.64.89 6.438.89zm20.777 3.86v-38.813h23.687v4.656h-18.25v11.531H86.98v4.531H70.744v13.454h19.657v4.64H65.307zm50.96-16.235q.907 1.11 2.266 2.937 1.375 1.813 2.828 4.032 1.469 2.203 2.89 4.625 1.423 2.406 2.438 4.64h-5.937q-1.125-2.125-2.438-4.312-1.312-2.188-2.656-4.172-1.344-1.985-2.672-3.719-1.312-1.734-2.375-3.031-.719.062-1.484.062h-6.407v15.172h-5.437v-38.25q2.297-.562 5.125-.75 2.828-.203 5.187-.203 8.172 0 12.454 3.078 4.28 3.078 4.28 9.188 0 3.86-2.046 6.61-2.031 2.75-6.016 4.093zm-8.234-18.203q-3.469 0-5.313.172v14.609h3.86q2.797 0 5.031-.281 2.25-.282 3.781-1.063 1.547-.781 2.39-2.203.845-1.437.845-3.781 0-2.188-.844-3.64-.844-1.47-2.281-2.298-1.422-.843-3.36-1.172-1.922-.343-4.11-.343zm55.833-4.375q-2.125 6.172-4.062 11.406-1.922 5.234-3.781 9.937-1.844 4.704-3.672 8.985-1.813 4.281-3.72 8.484h-5.093q-1.906-4.203-3.734-8.484-1.813-4.281-3.688-8.985-1.875-4.703-3.843-9.937-1.954-5.234-4.016-11.406h5.984q3.032 8.86 5.938 17.03 2.922 8.173 6 15.345 3.078-7.11 5.984-15.313 2.922-8.203 5.89-17.062h5.813zm5.377 0h5.437v38.812h-5.437v-38.812zm31.751 39.656q-4.078 0-7.437-1.344-3.36-1.344-5.781-3.922-2.407-2.578-3.72-6.36-1.312-3.78-1.312-8.655 0-4.86 1.485-8.64 1.484-3.782 4-6.36 2.515-2.578 5.875-3.922 3.36-1.344 7.172-1.344 2.406 0 4.343.344 1.938.328 3.36.781 1.422.438 2.312.89.907.454 1.25.673l-1.578 4.484q-.5-.344-1.453-.734-.953-.391-2.156-.782-1.203-.39-2.64-.64-1.423-.25-2.876-.25-3.078 0-5.547 1.062-2.453 1.063-4.203 3.078-1.734 2.016-2.656 4.907-.922 2.875-.922 6.453 0 3.484.813 6.343.812 2.844 2.437 4.891 1.625 2.047 4.063 3.172 2.437 1.11 5.687 1.11 3.75 0 6.203-.782 2.469-.781 3.703-1.406l1.39 4.484q-.39.281-1.405.703-1 .422-2.516.813-1.5.39-3.516.672-2.015.28-4.375.28zm18.033-.844v-38.812h23.687v4.656h-18.25v11.531H240.7v4.531h-16.235v13.454h19.657v4.64h-25.094z"/><path fill="none" d="M258.8 591.836h223.748v87.59H258.8z"/><path fill="#000" d="M272.284 654.596v-38.812h25.984v7.343h-17.25v8.11h15.344v7.344h-15.344v16.015h-8.734zm58.128 0q-.625-2.015-1.375-4.14-.75-2.125-1.484-4.266h-15.125q-.719 2.14-1.484 4.266-.75 2.125-1.375 4.14h-9.063q2.188-6.265 4.14-11.578 1.954-5.328 3.829-10.031 1.89-4.703 3.703-8.938 1.828-4.234 3.781-8.265h8.344q1.906 4.03 3.75 8.265t3.719 8.938q1.89 4.703 3.843 10.031 1.954 5.313 4.141 11.578h-9.344zm-10.484-30.015q-.266.843-.828 2.296-.563 1.454-1.297 3.36-.719 1.906-1.594 4.203-.86 2.297-1.765 4.812h11.03q-.89-2.515-1.734-4.812-.843-2.297-1.593-4.203-.75-1.906-1.313-3.36-.562-1.453-.906-2.296zm37.813 30.515q-3.203 0-6.375-.203-3.156-.187-6.562-.906v-37.64q2.687-.5 5.875-.75 3.187-.25 5.937-.25 3.688 0 6.797.53 3.11.532 5.344 1.829 2.25 1.28 3.5 3.375 1.266 2.093 1.266 5.171 0 4.657-4.47 7.344 3.688 1.406 5.032 3.813 1.344 2.406 1.344 5.422 0 6.109-4.453 9.187-4.453 3.078-13.235 3.078zm-4.437-17.406v10.016q.953.109 2.078.171 1.125.063 2.469.063 3.922 0 6.328-1.125t2.406-4.14q0-2.688-2.015-3.829-2.016-1.156-5.766-1.156h-5.5zm0-6.672h4.266q4.03 0 5.765-1.031 1.735-1.031 1.735-3.328 0-2.36-1.797-3.313-1.782-.953-5.25-.953-1.125 0-2.422.031-1.281.032-2.297.14v8.454zm40.491-15.672q8.735 0 13.375 3.11 4.657 3.093 4.657 9.656 0 4.078-1.875 6.64-1.875 2.547-5.407 4 1.188 1.454 2.469 3.329 1.297 1.875 2.547 3.921 1.266 2.047 2.437 4.266 1.172 2.203 2.188 4.328h-9.797q-1.062-1.906-2.156-3.86-1.094-1.968-2.25-3.812-1.14-1.843-2.266-3.5-1.125-1.656-2.234-3h-4.313v14.172h-8.734v-38.25q2.86-.562 5.906-.781 3.047-.219 5.453-.219zm.516 7.438q-.953 0-1.719.062-.75.047-1.422.11v10.53h2.469q4.922 0 7.047-1.234t2.125-4.203q0-2.86-2.156-4.062-2.157-1.203-6.344-1.203zm25.477-7h8.734v38.812h-8.734v-38.812zm40.602 38.812q-1.187-1.906-2.781-4.11-1.594-2.218-3.469-4.421-1.875-2.219-3.89-4.266-2.016-2.047-4.032-3.61v16.407h-8.734v-38.812h8.734v14.672q3.407-3.579 6.844-7.47 3.453-3.89 6.422-7.202h10.36q-3.97 4.703-7.985 9.078-4 4.36-8.422 8.797 4.656 3.86 8.984 9.187 4.344 5.313 8.329 11.75h-10.36z"/><path fill="#fff" d="M193.342 109.396h196.594c25.754 0 46.632 19.976 46.632 44.617 0 24.642-20.878 44.617-46.632 44.617H193.342c-25.754 0-46.632-19.975-46.632-44.617 0-24.641 20.878-44.617 46.632-44.617z"/><path stroke="#000" stroke-width="24" stroke-linejoin="round" stroke-linecap="butt" d="M193.342 109.396h196.594c25.754 0 46.632 19.976 46.632 44.617 0 24.642-20.878 44.617-46.632 44.617H193.342c-25.754 0-46.632-19.975-46.632-44.617 0-24.641 20.878-44.617 46.632-44.617z"/><path fill="#fff" d="M145.284 150.412c0-26.629 20.174-48.216 45.06-48.216 11.951 0 23.413 5.08 31.863 14.122s13.198 21.306 13.198 34.094c0 26.629-20.174 48.216-45.06 48.216-24.887 0-45.06-21.587-45.06-48.216z"/><path stroke="#000" stroke-width="24" stroke-linejoin="round" stroke-linecap="butt" d="M145.284 150.412c0-26.629 20.174-48.216 45.06-48.216 11.951 0 23.413 5.08 31.863 14.122s13.198 21.306 13.198 34.094c0 26.629-20.174 48.216-45.06 48.216-24.887 0-45.06-21.587-45.06-48.216z"/><path fill="#fff" d="M341.455 144.63c0-29.826 22.21-54.006 49.61-54.006 13.156 0 25.775 5.69 35.078 15.818 9.304 10.128 14.53 23.865 14.53 38.188 0 29.826-22.21 54.005-49.609 54.005-27.398 0-49.61-24.179-49.61-54.005z"/><path stroke="#000" stroke-width="24" stroke-linejoin="round" stroke-linecap="butt" d="M341.455 144.63c0-29.826 22.21-54.006 49.61-54.006 13.156 0 25.775 5.69 35.078 15.818 9.304 10.128 14.53 23.865 14.53 38.188 0 29.826-22.21 54.005-49.609 54.005-27.398 0-49.61-24.179-49.61-54.005z"/><path fill="#fff" d="M188.085 137.81c0-33.587 24.22-60.814 54.097-60.814 14.347 0 28.107 6.407 38.252 17.812 10.145 11.405 15.845 26.873 15.845 43.002 0 33.587-24.22 60.814-54.097 60.814-29.877 0-54.097-27.227-54.097-60.814z"/><path stroke="#000" stroke-width="24" stroke-linejoin="round" stroke-linecap="butt" d="M188.085 137.81c0-33.587 24.22-60.814 54.097-60.814 14.347 0 28.107 6.407 38.252 17.812 10.145 11.405 15.845 26.873 15.845 43.002 0 33.587-24.22 60.814-54.097 60.814-29.877 0-54.097-27.227-54.097-60.814z"/><path fill="#fff" d="M235.403 117.387c0-44.4 33.535-80.393 74.901-80.393 19.865 0 38.917 8.47 52.963 23.546 14.047 15.077 21.938 35.525 21.938 56.847 0 44.4-33.534 80.393-74.9 80.393-41.367 0-74.902-35.993-74.902-80.393z"/><path stroke="#000" stroke-width="24" stroke-linejoin="round" stroke-linecap="butt" d="M235.403 117.387c0-44.4 33.535-80.393 74.901-80.393 19.865 0 38.917 8.47 52.963 23.546 14.047 15.077 21.938 35.525 21.938 56.847 0 44.4-33.534 80.393-74.9 80.393-41.367 0-74.902-35.993-74.902-80.393z"/><path fill="#fff" d="M193.342 109.396h196.594c25.754 0 46.632 19.976 46.632 44.617 0 24.642-20.878 44.617-46.632 44.617H193.342c-25.754 0-46.632-19.975-46.632-44.617 0-24.641 20.878-44.617 46.632-44.617z"/><path stroke="#fff" stroke-linejoin="round" stroke-linecap="butt" d="M193.342 109.396h196.594c25.754 0 46.632 19.976 46.632 44.617 0 24.642-20.878 44.617-46.632 44.617H193.342c-25.754 0-46.632-19.975-46.632-44.617 0-24.641 20.878-44.617 46.632-44.617z"/><path fill="#fff" d="M145.284 150.412c0-26.629 20.174-48.216 45.06-48.216 11.951 0 23.413 5.08 31.863 14.122s13.198 21.306 13.198 34.094c0 26.629-20.174 48.216-45.06 48.216-24.887 0-45.06-21.587-45.06-48.216z"/><path stroke="#fff" stroke-linejoin="round" stroke-linecap="butt" d="M145.284 150.412c0-26.629 20.174-48.216 45.06-48.216 11.951 0 23.413 5.08 31.863 14.122s13.198 21.306 13.198 34.094c0 26.629-20.174 48.216-45.06 48.216-24.887 0-45.06-21.587-45.06-48.216z"/><path fill="#fff" d="M341.455 144.63c0-29.826 22.21-54.006 49.61-54.006 13.156 0 25.775 5.69 35.078 15.818 9.304 10.128 14.53 23.865 14.53 38.188 0 29.826-22.21 54.005-49.609 54.005-27.398 0-49.61-24.179-49.61-54.005z"/><path stroke="#fff" stroke-linejoin="round" stroke-linecap="butt" d="M341.455 144.63c0-29.826 22.21-54.006 49.61-54.006 13.156 0 25.775 5.69 35.078 15.818 9.304 10.128 14.53 23.865 14.53 38.188 0 29.826-22.21 54.005-49.609 54.005-27.398 0-49.61-24.179-49.61-54.005z"/><path fill="#fff" d="M188.085 137.81c0-33.587 24.22-60.814 54.097-60.814 14.347 0 28.107 6.407 38.252 17.812 10.145 11.405 15.845 26.873 15.845 43.002 0 33.587-24.22 60.814-54.097 60.814-29.877 0-54.097-27.227-54.097-60.814z"/><path stroke="#fff" stroke-linejoin="round" stroke-linecap="butt" d="M188.085 137.81c0-33.587 24.22-60.814 54.097-60.814 14.347 0 28.107 6.407 38.252 17.812 10.145 11.405 15.845 26.873 15.845 43.002 0 33.587-24.22 60.814-54.097 60.814-29.877 0-54.097-27.227-54.097-60.814z"/><path fill="#fff" d="M235.403 117.387c0-44.4 33.535-80.393 74.901-80.393 19.865 0 38.917 8.47 52.963 23.546 14.047 15.077 21.938 35.525 21.938 56.847 0 44.4-33.534 80.393-74.9 80.393-41.367 0-74.902-35.993-74.902-80.393z"/><path stroke="#fff" stroke-linejoin="round" stroke-linecap="butt" d="M235.403 117.387c0-44.4 33.535-80.393 74.901-80.393 19.865 0 38.917 8.47 52.963 23.546 14.047 15.077 21.938 35.525 21.938 56.847 0 44.4-33.534 80.393-74.9 80.393-41.367 0-74.902-35.993-74.902-80.393z"/><path fill="#32a0ff" d="M264.92 120.01c0-23.747 19.3-42.998 43.106-42.998a43.16 43.16 0 0 1 30.48 12.594 42.945 42.945 0 0 1 12.625 30.404c0 23.748-19.3 43-43.105 43-23.807 0-43.106-19.252-43.106-43zm11.042 0c0 17.65 14.355 31.957 32.064 31.957 17.708 0 32.063-14.307 32.063-31.957 0-17.649-14.355-31.956-32.063-31.956-17.709 0-32.064 14.307-32.064 31.956z"/><path stroke="#32a0ff" stroke-width="2" stroke-linejoin="round" stroke-linecap="butt" d="M264.92 120.01c0-23.747 19.3-42.998 43.106-42.998a43.16 43.16 0 0 1 30.48 12.594 42.945 42.945 0 0 1 12.625 30.404c0 23.748-19.3 43-43.105 43-23.807 0-43.106-19.252-43.106-43zm11.042 0c0 17.65 14.355 31.957 32.064 31.957 17.708 0 32.063-14.307 32.063-31.957 0-17.649-14.355-31.956-32.063-31.956-17.709 0-32.064 14.307-32.064 31.956z"/><path fill="#32a0ff" d="M300.498 77.84l3.226-12.903h8.6l3.226 12.904z"/><path stroke="#32a0ff" stroke-width="2" stroke-linejoin="round" stroke-linecap="butt" d="M300.498 77.84l3.226-12.903h8.6l3.226 12.904z"/><path fill="#32a0ff" d="M300.498 162.13l3.226 12.903h8.6l3.226-12.903z"/><path stroke="#32a0ff" stroke-width="2" stroke-linejoin="round" stroke-linecap="butt" d="M300.498 162.13l3.226 12.903h8.6l3.226-12.903z"/><path fill="#32a0ff" d="M350.169 112.459l12.903 3.226v8.6l-12.903 3.226z"/><path stroke="#32a0ff" stroke-width="2" stroke-linejoin="round" stroke-linecap="butt" d="M350.169 112.459l12.903 3.226v8.6l-12.903 3.226z"/><path fill="#32a0ff" d="M265.88 112.459l-12.904 3.226v8.6l12.903 3.226z"/><path stroke="#32a0ff" stroke-width="2" stroke-linejoin="round" stroke-linecap="butt" d="M265.88 112.459l-12.904 3.226v8.6l12.903 3.226z"/><path fill="#32a0ff" d="M340.76 92.53l12.789-3.657 4.3 7.45-9.564 9.244z"/><path stroke="#32a0ff" stroke-width="2" stroke-linejoin="round" stroke-linecap="butt" d="M340.76 92.53l12.789-3.657 4.3 7.45-9.564 9.244z"/><path fill="#32a0ff" d="M267.758 134.666l-9.563 9.244 4.3 7.45 12.787-3.657z"/><path stroke="#32a0ff" stroke-width="2" stroke-linejoin="round" stroke-linecap="butt" d="M267.758 134.666l-9.563 9.244 4.3 7.45 12.787-3.657z"/><path fill="#32a0ff" d="M322.602 79.73l9.25-9.555 7.446 4.304-3.665 12.785z"/><path stroke="#32a0ff" stroke-width="2" stroke-linejoin="round" stroke-linecap="butt" d="M322.602 79.73l9.25-9.555 7.446 4.304-3.665 12.785z"/><path fill="#32a0ff" d="M280.415 152.7l-3.666 12.785 7.446 4.305 9.25-9.556z"/><path stroke="#32a0ff" stroke-width="2" stroke-linejoin="round" stroke-linecap="butt" d="M280.415 152.7l-3.666 12.785 7.446 4.305 9.25-9.556z"/><path fill="#32a0ff" d="M280.445 87.244l-3.655-12.79 7.45-4.298 9.244 9.565z"/><path stroke="#32a0ff" stroke-width="2" stroke-linejoin="round" stroke-linecap="butt" d="M280.445 87.244l-3.655-12.79 7.45-4.298 9.244 9.565z"/><path fill="#32a0ff" d="M322.573 160.255l9.243 9.565 7.45-4.299-3.655-12.789z"/><path stroke="#32a0ff" stroke-width="2" stroke-linejoin="round" stroke-linecap="butt" d="M322.573 160.255l9.243 9.565 7.45-4.299-3.655-12.789z"/><path fill="#32a0ff" d="M348.278 134.561l9.556 9.251-4.304 7.446-12.785-3.666z"/><path stroke="#32a0ff" stroke-width="2" stroke-linejoin="round" stroke-linecap="butt" d="M348.278 134.561l9.556 9.251-4.304 7.446-12.785-3.666z"/><path fill="#32a0ff" d="M275.31 92.374l-12.786-3.665-4.305 7.446 9.556 9.25z"/><path stroke="#32a0ff" stroke-width="2" stroke-linejoin="round" stroke-linecap="butt" d="M275.31 92.374l-12.786-3.665-4.305 7.446 9.556 9.25z"/><path fill="#999" d="M177.43 151.16c0-14.272 11.294-25.842 25.228-25.842 6.69 0 13.108 2.723 17.839 7.57 4.731 4.846 7.389 11.419 7.389 18.273 0 14.272-11.295 25.842-25.228 25.842-13.934 0-25.229-11.57-25.229-25.842zm11.633 0c0 7.848 6.087 14.21 13.595 14.21 7.508 0 13.594-6.362 13.594-14.21 0-7.847-6.086-14.208-13.594-14.208-7.508 0-13.595 6.361-13.595 14.209z"/><path stroke="#999" stroke-width="2" stroke-linejoin="round" stroke-linecap="butt" d="M177.43 151.16c0-14.272 11.294-25.842 25.228-25.842 6.69 0 13.108 2.723 17.839 7.57 4.731 4.846 7.389 11.419 7.389 18.273 0 14.272-11.295 25.842-25.228 25.842-13.934 0-25.229-11.57-25.229-25.842zm11.633 0c0 7.848 6.087 14.21 13.595 14.21 7.508 0 13.594-6.362 13.594-14.21 0-7.847-6.086-14.208-13.594-14.208-7.508 0-13.595 6.361-13.595 14.209z"/><path fill="#999" d="M198.248 125.817l1.94-7.757h4.93l1.939 7.757z"/><path stroke="#999" stroke-width="2" stroke-linejoin="round" stroke-linecap="butt" d="M198.248 125.817l1.94-7.757h4.93l1.939 7.757z"/><path fill="#999" d="M198.248 176.488l1.94 7.757h4.93l1.939-7.757z"/><path stroke="#999" stroke-width="2" stroke-linejoin="round" stroke-linecap="butt" d="M198.248 176.488l1.94 7.757h4.93l1.939-7.757z"/><path fill="#999" d="M227.315 146.628l7.55 1.887v5.274l-7.55 1.887z"/><path stroke="#999" stroke-width="2" stroke-linejoin="round" stroke-linecap="butt" d="M227.315 146.628l7.55 1.887v5.274l-7.55 1.887z"/><path fill="#999" d="M177.99 146.628l-7.55 1.887v5.274l7.55 1.887z"/><path stroke="#999" stroke-width="2" stroke-linejoin="round" stroke-linecap="butt" d="M177.99 146.628l-7.55 1.887v5.274l7.55 1.887z"/><path fill="#999" d="M221.798 134.645l7.473-2.221 2.54 4.52-5.611 5.536z"/><path stroke="#999" stroke-width="2" stroke-linejoin="round" stroke-linecap="butt" d="M221.798 134.645l7.473-2.221 2.54 4.52-5.611 5.536z"/><path fill="#999" d="M179.066 159.98l-5.61 5.536 2.539 4.52 7.472-2.22z"/><path stroke="#999" stroke-width="2" stroke-linejoin="round" stroke-linecap="butt" d="M179.066 159.98l-5.61 5.536 2.539 4.52 7.472-2.22z"/><path fill="#999" d="M211.19 126.96l5.434-5.733 4.313 2.562-2.121 7.7z"/><path stroke="#999" stroke-width="2" stroke-linejoin="round" stroke-linecap="butt" d="M211.19 126.96l5.434-5.733 4.313 2.562-2.121 7.7z"/><path fill="#999" d="M186.514 170.839l-2.122 7.7 4.314 2.563 5.434-5.734z"/><path stroke="#999" stroke-width="2" stroke-linejoin="round" stroke-linecap="butt" d="M186.514 170.839l-2.122 7.7 4.314 2.563 5.434-5.734z"/><path fill="#999" d="M186.517 131.458l-2.116-7.7 4.317-2.56 5.43 5.735z"/><path stroke="#999" stroke-width="2" stroke-linejoin="round" stroke-linecap="butt" d="M186.517 131.458l-2.116-7.7 4.317-2.56 5.43 5.735z"/><path fill="#999" d="M211.165 175.336l5.43 5.735 4.317-2.56-2.116-7.7z"/><path stroke="#999" stroke-width="2" stroke-linejoin="round" stroke-linecap="butt" d="M211.165 175.336l5.43 5.735 4.317-2.56-2.116-7.7z"/><path fill="#999" d="M226.213 159.92l5.606 5.54-2.544 4.523-7.469-2.226z"/><path stroke="#999" stroke-width="2" stroke-linejoin="round" stroke-linecap="butt" d="M226.213 159.92l5.606 5.54-2.544 4.523-7.469-2.226z"/><path fill="#999" d="M183.51 134.557l-7.47-2.226-2.543 4.522 5.606 5.54z"/><path stroke="#999" stroke-width="2" stroke-linejoin="round" stroke-linecap="butt" d="M183.51 134.557l-7.47-2.226-2.543 4.522 5.606 5.54z"/><path fill="#000" d="M380.897 144.5c0-9.732 8.038-17.622 17.953-17.622 4.761 0 9.328 1.857 12.695 5.162 3.366 3.305 5.258 7.787 5.258 12.46 0 9.733-8.038 17.622-17.953 17.622s-17.953-7.89-17.953-17.622zm8.714 0c0 4.92 4.136 8.91 9.24 8.91 5.102 0 9.238-3.99 9.238-8.91s-4.136-8.908-9.239-8.908c-5.103 0-9.24 3.988-9.24 8.908z"/><path stroke="#000" stroke-width="2" stroke-linejoin="round" stroke-linecap="butt" d="M380.897 144.5c0-9.732 8.038-17.622 17.953-17.622 4.761 0 9.328 1.857 12.695 5.162 3.366 3.305 5.258 7.787 5.258 12.46 0 9.733-8.038 17.622-17.953 17.622s-17.953-7.89-17.953-17.622zm8.714 0c0 4.92 4.136 8.91 9.24 8.91 5.102 0 9.238-3.99 9.238-8.91s-4.136-8.908-9.239-8.908c-5.103 0-9.24 3.988-9.24 8.908z"/><path fill="#000" d="M395.716 127.218l1.322-5.287h3.626l1.322 5.287z"/><path stroke="#000" stroke-width="2" stroke-linejoin="round" stroke-linecap="butt" d="M395.716 127.218l1.322-5.287h3.626l1.322 5.287z"/><path fill="#000" d="M395.716 161.753l1.322 5.287h3.626l1.322-5.287z"/><path stroke="#000" stroke-width="2" stroke-linejoin="round" stroke-linecap="butt" d="M395.716 161.753l1.322 5.287h3.626l1.322-5.287z"/><path fill="#000" d="M416.406 141.402l5.374 1.344v3.48l-5.374 1.343z"/><path stroke="#000" stroke-width="2" stroke-linejoin="round" stroke-linecap="butt" d="M416.406 141.402l5.374 1.344v3.48l-5.374 1.343z"/><path fill="#000" d="M381.297 141.402l-5.375 1.344v3.48l5.375 1.343z"/><path stroke="#000" stroke-width="2" stroke-linejoin="round" stroke-linecap="butt" d="M381.297 141.402l-5.375 1.344v3.48l5.375 1.343z"/><path fill="#000" d="M412.48 133.238l5.332-1.487 1.778 3.035-3.978 3.795z"/><path stroke="#000" stroke-width="2" stroke-linejoin="round" stroke-linecap="butt" d="M412.48 133.238l5.332-1.487 1.778 3.035-3.978 3.795z"/><path fill="#000" d="M382.071 150.491l-3.978 3.796 1.779 3.035 5.332-1.487z"/><path stroke="#000" stroke-width="2" stroke-linejoin="round" stroke-linecap="butt" d="M382.071 150.491l-3.978 3.796 1.779 3.035 5.332-1.487z"/><path fill="#000" d="M404.916 127.989l3.843-3.92 3.118 1.774-1.536 5.232z"/><path stroke="#000" stroke-width="2" stroke-linejoin="round" stroke-linecap="butt" d="M404.916 127.989l3.843-3.92 3.118 1.774-1.536 5.232z"/><path fill="#000" d="M387.347 157.881l-1.536 5.232 3.119 1.774 3.843-3.92z"/><path stroke="#000" stroke-width="2" stroke-linejoin="round" stroke-linecap="butt" d="M387.347 157.881l-1.536 5.232 3.119 1.774 3.843-3.92z"/><path fill="#000" d="M387.36 131.078l-1.532-5.235 3.122-1.771 3.84 3.925z"/><path stroke="#000" stroke-width="2" stroke-linejoin="round" stroke-linecap="butt" d="M387.36 131.078l-1.532-5.235 3.122-1.771 3.84 3.925z"/><path fill="#000" d="M404.9 161l3.839 3.925 3.121-1.771-1.53-5.236z"/><path stroke="#000" stroke-width="2" stroke-linejoin="round" stroke-linecap="butt" d="M404.9 161l3.839 3.925 3.121-1.771-1.53-5.236z"/><path fill="#000" d="M415.626 150.456l3.973 3.8-1.782 3.03-5.328-1.492z"/><path stroke="#000" stroke-width="2" stroke-linejoin="round" stroke-linecap="butt" d="M415.626 150.456l3.973 3.8-1.782 3.03-5.328-1.492z"/><path fill="#000" d="M385.246 133.174l-5.328-1.492-1.782 3.032 3.973 3.798z"/><path stroke="#000" stroke-width="2" stroke-linejoin="round" stroke-linecap="butt" d="M385.246 133.174l-5.328-1.492-1.782 3.032 3.973 3.798z"/></g></svg>